<svg xmlns="http://www.w3.org/2000/svg" viewBox="0 0 640 368" width="640" height="368" role="img"><g transform="translate(0,0)"><rect x="0" y="0" width="640" height="368" rx="10" fill="#161b22" stroke="#30363d" stroke-width="1"/><path d="M0 10a10 10 0 0 1 10-10h620a10 10 0 0 1 10 10v24H0z" fill="#2b3038"/><line x1="0" y1="34" x2="640" y2="34" stroke="#30363d"/><circle cx="18" cy="17.0" r="6" fill="#ff5f57"/><circle cx="37" cy="17.0" r="6" fill="#febc2e"/><circle cx="56" cy="17.0" r="6" fill="#28c840"/><text x="320.0" y="21.5" text-anchor="middle" font-family="-apple-system, SF Pro Text, Helvetica, sans-serif" font-size="12.5" fill="#9aa4b0">you — -zsh — 92×18</text><text font-family="SF Mono, Menlo, Consolas, monospace" font-size="13.5" xml:space="preserve"><tspan x="18.0" y="64" fill="#7ee787">➜  </tspan><tspan x="42.4" y="64" fill="#79c0ff">~  </tspan><tspan x="66.7" y="64" fill="#e6edf3">ccslot view work</tspan><tspan x="18.0" y="85" fill="#e3b341">work</tspan><tspan x="18.0" y="106" fill="#8b949e">  dir    </tspan><tspan x="91.1" y="106" fill="#e6edf3">/Users/you/.claude-work</tspan><tspan x="18.0" y="127" fill="#8b949e">  alias  </tspan><tspan x="91.1" y="127" fill="#e6edf3">ccwork</tspan><tspan x="18.0" y="148" fill="#8b949e">  env    </tspan><tspan x="91.1" y="148" fill="#e6edf3">CLAUDE_CONFIG_DIR="/Users/you/.claude-work"</tspan><tspan x="18.0" y="169" fill="#8b949e">  shared:</tspan><tspan x="18.0" y="190" fill="#56d4dd">    plans</tspan><tspan x="91.1" y="190" fill="#79c0ff"> -&gt; /Users/you/.claude/plans</tspan><tspan x="18.0" y="211" fill="#56d4dd">    projects</tspan><tspan x="115.4" y="211" fill="#79c0ff"> -&gt; /Users/you/.claude/projects</tspan><tspan x="18.0" y="232" fill="#56d4dd">    settings.json</tspan><tspan x="156.0" y="232" fill="#79c0ff"> -&gt; /Users/you/.claude/settings.json</tspan><tspan x="18.0" y="253" fill="#56d4dd">    skills</tspan><tspan x="99.2" y="253" fill="#79c0ff"> -&gt; /Users/you/.claude/skills</tspan><tspan x="18.0" y="274" fill="#8b949e">  own:</tspan><tspan x="18.0" y="295" fill="#e3b341">    .claude.json</tspan><tspan x="18.0" y="316" fill="#e3b341">    history.jsonl</tspan><tspan x="18.0" y="337" fill="#e3b341">    sessions</tspan></text></g></svg>