<svg xmlns="http://www.w3.org/2000/svg" viewBox="0 0 640 284" width="640" height="284" role="img"><g transform="translate(0,0)"><rect x="0" y="0" width="640" height="284" rx="10" fill="#161b22" stroke="#30363d" stroke-width="1"/><path d="M0 10a10 10 0 0 1 10-10h620a10 10 0 0 1 10 10v24H0z" fill="#2b3038"/><line x1="0" y1="34" x2="640" y2="34" stroke="#30363d"/><circle cx="18" cy="17.0" r="6" fill="#ff5f57"/><circle cx="37" cy="17.0" r="6" fill="#febc2e"/><circle cx="56" cy="17.0" r="6" fill="#28c840"/><text x="320.0" y="21.5" text-anchor="middle" font-family="-apple-system, SF Pro Text, Helvetica, sans-serif" font-size="12.5" fill="#9aa4b0">my-app — claude — 92×15</text><text font-family="SF Mono, Menlo, Consolas, monospace" font-size="13.5" xml:space="preserve"><tspan x="18.0" y="64" fill="#8b949e"># same repo, opened as a different account</tspan><tspan x="18.0" y="85" fill="#7ee787">➜  </tspan><tspan x="42.4" y="85" fill="#79c0ff">~  </tspan><tspan x="66.7" y="85" fill="#e6edf3">cd ~/code/my-app &amp;&amp; ccwork</tspan><tspan x="18.0" y="127" fill="#e6edf3">  </tspan><tspan x="34.2" y="127" fill="#d2a8ff">/resume</tspan><tspan x="18.0" y="169" fill="#e6edf3">  </tspan><tspan x="34.2" y="169" fill="#7ee787">❯ </tspan><tspan x="50.5" y="169" fill="#e6edf3">fix the flaky auth test</tspan><tspan x="237.2" y="169" fill="#8b949e">            2 hours ago</tspan><tspan x="18.0" y="190" fill="#e6edf3">  </tspan><tspan x="34.2" y="190" fill="#7ee787">  </tspan><tspan x="50.5" y="190" fill="#e6edf3">rewrite the settings loader</tspan><tspan x="269.7" y="190" fill="#8b949e">      yesterday</tspan><tspan x="18.0" y="211" fill="#e6edf3">  </tspan><tspan x="34.2" y="211" fill="#7ee787">  </tspan><tspan x="50.5" y="211" fill="#e6edf3">add pagination to the list view</tspan><tspan x="302.2" y="211" fill="#8b949e">  3 days ago</tspan><tspan x="18.0" y="253" fill="#8b949e">  history written by the other account — still here</tspan></text></g></svg>